<svg width="411" height="56" viewBox="0 0 411 56" fill="none" xmlns="http://www.w3.org/2000/svg">
<g clip-path="url(#clip0_416_860)">
<path d="M148.428 31.4996C154.226 31.4996 158.931 36.1986 158.931 42.0014H164.18L148.428 0L132.676 42.0014H137.925C137.925 36.2044 142.624 31.4996 148.428 31.4996Z" fill="black"/>
<path d="M169.435 56.0005L164.187 42.002H158.938C158.938 47.799 154.238 52.5038 148.434 52.5038C142.631 52.5038 137.931 47.8048 137.931 42.002H132.682L127.434 56.0005H169.441H169.435Z" fill="#EDE100"/>
<path d="M148.428 31.5C142.63 31.5 137.925 36.1989 137.925 42.0018H158.926C158.926 36.2047 154.226 31.5 148.422 31.5H148.428Z" fill="#C82F80"/>
<path d="M28.0005 35.7019C23.7518 35.7019 20.3008 32.2457 20.3008 28.0033C20.3008 23.761 23.7576 20.3047 28.0005 20.3047C32.2435 20.3047 35.7003 23.761 35.7003 28.0033C35.7003 32.2457 32.2435 35.7019 28.0005 35.7019ZM28.0005 21.7034C24.5264 21.7034 21.6997 24.5297 21.6997 28.0033C21.6997 31.4769 24.5264 34.3032 28.0005 34.3032C31.4747 34.3032 34.3014 31.4769 34.3014 28.0033C34.3014 24.5297 31.4747 21.7034 28.0005 21.7034Z" fill="#609EC0"/>
<path d="M28.0012 0H0V27.9971C0 12.5363 12.5381 0 28.0012 0Z" fill="#609EC0"/>
<path d="M55.3027 27.2979H28.001V28.6966H55.3027V27.2979Z" fill="black"/>
<path d="M54.6092 27.2978V28.0029C54.6092 42.6661 42.6723 54.6013 28.007 54.6013C13.3416 54.6013 1.40468 42.6661 1.40468 28.0029C1.40468 13.3397 13.33 1.40448 28.007 1.40448V0C12.5381 0 0 12.5363 0 28.0029C0 43.4695 12.5381 56 28.0012 56C43.4643 56 56.0024 43.4637 56.0024 28.0029V27.2978H54.6035H54.6092Z" fill="black"/>
<path d="M73.4307 13.999L115.438 56.0005H73.4307V13.999Z" fill="#C82F80"/>
<path d="M115.427 20.7262C115.427 20.4372 115.415 20.1424 115.404 19.8592C115.404 19.7956 115.392 19.7378 115.392 19.6743C115.369 19.3448 115.346 19.0212 115.311 18.6975C115.311 18.6917 115.311 18.6802 115.311 18.6744C114.143 8.16679 105.241 0 94.4316 0H73.4307V13.9986L74.8296 15.3973V1.40448H94.4316C105.241 1.40448 114.034 10.1955 114.034 21.0036C114.034 31.8117 105.241 40.6027 94.4316 40.6027H73.4307V42.0014H94.4316C100.958 42.0014 106.785 39.0249 110.64 34.3606C110.739 34.245 110.831 34.1236 110.924 34.0023C111.039 33.8578 111.155 33.7133 111.265 33.5688C113.883 30.0663 115.438 25.7141 115.438 21.0036C115.438 20.9111 115.432 20.8187 115.432 20.7262H115.427Z" fill="black"/>
<path d="M217.801 0H189.8V27.9971C189.794 12.5363 202.332 0 217.801 0Z" fill="#C82F80"/>
<path d="M189.794 28.0029V56H217.795C202.332 56 189.794 43.4638 189.794 28.0029Z" fill="#C82F80"/>
<path d="M224.293 1.47962C226.668 2.06337 228.963 2.95923 231.108 4.16142C228.958 2.96501 226.668 2.06337 224.293 1.47962ZM231.108 51.827C228.952 53.0408 226.645 53.9424 224.252 54.5262C226.64 53.9424 228.946 53.0408 231.108 51.827ZM217.801 0C202.338 0 189.8 12.5363 189.8 27.9971C189.8 43.4579 202.338 55.9942 217.801 55.9942C222.905 55.9942 227.68 54.6244 231.802 52.2374V50.5959C227.732 53.1275 222.934 54.5897 217.801 54.5897C203.13 54.5897 191.199 42.6546 191.199 27.9913C191.199 13.3281 203.13 1.3987 217.801 1.3987C222.934 1.3987 227.732 2.86676 231.802 5.39251V3.75106C227.68 1.3698 222.899 0 217.801 0Z" fill="black"/>
<path d="M275.41 1.3987V12.5999H264.207V1.3987H275.41ZM276.809 0H262.809V13.9986H276.809V0Z" fill="black"/>
<path d="M276.809 13.998H262.809V55.9995H276.809V13.998Z" fill="#C82F80"/>
<path d="M311.204 31.4996C317.002 31.4996 321.708 36.1986 321.708 42.0014H326.956L311.204 0L295.452 42.0014H300.701C300.701 36.2044 305.401 31.4996 311.204 31.4996Z" fill="black"/>
<path d="M332.21 56.0005L326.961 42.002H321.712C321.712 47.799 317.013 52.5038 311.209 52.5038C305.405 52.5038 300.706 47.8048 300.706 42.002H295.457L290.208 56.0005H332.216H332.21Z" fill="#EDE100"/>
<path d="M311.204 31.5C305.407 31.5 300.701 36.1989 300.701 42.0018H321.702C321.702 36.2047 317.002 31.5 311.199 31.5H311.204Z" fill="#C82F80"/>
<path d="M411 0L396.098 14.9002C394.167 14.3107 392.121 13.9986 390 13.9986C378.398 13.9986 368.999 23.4022 368.999 34.9964C368.999 37.1176 369.311 39.1636 369.9 41.094C361.276 38.4874 354.998 30.4766 354.998 20.9978C354.998 9.40366 364.397 0 375.999 0H411.006H411Z" fill="#EDE100"/>
<path d="M397 21.0039C397 32.6038 387.595 42.0017 375.999 42.0017C373.877 42.0017 371.831 41.6838 369.9 41.1001L382.999 28.0032L396.098 14.9062C396.688 16.8367 397 18.8827 397 21.0039Z" fill="black"/>
<path d="M411 35.0024C411 46.6024 401.595 56.0003 389.999 56.0003H354.992L369.895 41.1001C371.825 41.6896 373.872 42.0017 375.993 42.0017C387.595 42.0017 396.994 32.5981 396.994 21.0039C396.994 18.8827 396.682 16.8367 396.092 14.9062C404.717 17.5129 410.995 25.5237 410.995 35.0024H411Z" fill="#609EC0"/>
</g>
<defs>
<clipPath id="clip0_416_860">
<rect width="411" height="56" fill="white"/>
</clipPath>
</defs>
</svg>
