<svg width="482" height="58" viewBox="0 0 482 58" fill="none" xmlns="http://www.w3.org/2000/svg">
<path d="M12.2695 8.54126V57.6252C25.8209 57.6252 36.809 46.6372 36.809 33.0858C36.809 19.5344 25.826 8.54126 12.2695 8.54126Z" fill="#609EC0"/>
<path d="M1.22596 10.8361L34.6004 33.0858L1.22596 55.3303V10.8361ZM0 8.54126V57.6252L36.8142 33.0858L0 8.54126Z" fill="white"/>
<path d="M64.4988 9.76722V19.585H54.681V9.76722H64.4988ZM65.7248 8.54126H53.4551V20.811H65.7248V8.54126Z" fill="white"/>
<path d="M65.7248 20.811H53.4551V57.6253H65.7248V20.811Z" fill="#C82F80"/>
<path d="M132.657 8.54126L119.597 21.6013C117.905 21.0845 116.112 20.811 114.252 20.811C104.085 20.811 95.8478 29.0533 95.8478 39.2156C95.8478 41.0748 96.1265 42.8681 96.6381 44.5601C89.0797 42.2754 83.5781 35.254 83.5781 26.9458C83.5781 16.7785 91.8204 8.54126 101.983 8.54126H132.662H132.657Z" fill="#EDE100"/>
<path d="M120.387 26.9508C120.387 37.1181 112.145 45.3554 101.982 45.3554C100.123 45.3554 98.3297 45.0767 96.6377 44.5651L108.117 33.0856L119.597 21.6062C120.113 23.2982 120.387 25.0916 120.387 26.9508Z" fill="white"/>
<path d="M132.656 39.2205C132.656 49.3878 124.414 57.6251 114.252 57.6251H83.5723L96.6323 44.5651C98.3243 45.0818 100.118 45.3554 101.977 45.3554C112.144 45.3554 120.381 37.1131 120.381 26.9508C120.381 25.0916 120.108 23.2982 119.591 21.6062C127.15 23.8909 132.651 30.9123 132.651 39.2205H132.656Z" fill="#609EC0"/>
<path d="M168.959 9.76722L146.512 32.2144L145.645 33.0807L146.512 33.947L168.959 56.3942H142.469V9.76722H168.959ZM171.923 8.54126H141.243V57.6252H171.923L147.383 33.0858L171.923 8.54633V8.54126Z" fill="#C82F80"/>
<path d="M159.656 20.8115L147.384 33.084L159.656 45.3565L171.929 33.084L159.656 20.8115Z" fill="#EDE100"/>
<path d="M194.729 8.54126H231.539V45.3555L194.729 8.54126Z" fill="#C82F80"/>
<path d="M231.539 57.6253H194.729V20.811L231.539 57.6253Z" fill="#EDE100"/>
<path d="M232.461 8.54126H231.235V57.6252H232.461V8.54126Z" fill="white"/>
<path d="M194.724 8.54126H193.498V57.6252H194.724V8.54126Z" fill="white"/>
<path d="M264.063 33.0858C264.063 26.3076 269.554 20.8161 276.332 20.8161V8.54639C262.781 8.54639 251.793 19.5344 251.793 33.0858C251.793 46.6372 262.781 57.6253 276.332 57.6253V45.3555C269.554 45.3555 264.063 39.8641 264.063 33.0858Z" fill="white"/>
<path d="M276.332 8.54126V20.811C283.11 20.811 288.602 26.3025 288.602 33.0807C288.602 39.8589 283.11 45.3504 276.332 45.3504V57.6201C289.889 57.6201 300.871 46.6321 300.871 33.0807C300.871 19.5293 289.883 8.54126 276.332 8.54126Z" fill="#C82F80"/>
<path d="M288.602 33.0856C288.602 26.3074 283.11 20.8159 276.332 20.8159V45.3554C283.11 45.3554 288.602 39.8639 288.602 33.0856Z" fill="white"/>
<path d="M228.565 0.455935V4.10848H197.399V0.455935H228.565ZM232.46 0H193.498V4.56948H232.46V0Z" fill="white"/>
<path d="M353.208 8.76392L371.613 57.8479L390.017 8.76392H353.208Z" fill="#C82F80"/>
<path d="M375.979 9.995L359.342 54.3575L342.706 9.995H375.979ZM377.752 8.76904H340.938L359.342 57.853L377.747 8.76904H377.752Z" fill="white"/>
<path d="M425.175 9.995L402.728 32.4422L401.861 33.3085L402.728 34.1748L425.175 56.622H398.685V9.995H425.175ZM428.138 8.76904H397.459V57.853H428.138L403.599 33.3136L428.138 8.77411V8.76904Z" fill="#C82F80"/>
<path d="M415.871 21.0329L403.599 33.3054L415.871 45.5779L428.144 33.3054L415.871 21.0329Z" fill="#EDE100"/>
<path d="M481.006 20.8818C481.006 24.2709 479.633 27.3358 477.42 29.5597L450.332 57.696V8.61206H468.737C472.131 8.61206 475.196 9.98493 477.42 12.1988C479.633 14.4176 481.006 17.4876 481.006 20.8818Z" fill="#609EC0"/>
<path d="M468.737 58H450.332V56.7741H468.737C475.165 56.7741 480.393 51.546 480.393 45.1173C480.393 38.6886 475.165 33.4606 468.737 33.4606H450.332V32.2346H468.737C475.839 32.2346 481.619 38.0149 481.619 45.1173C481.619 52.2198 475.839 58 468.737 58Z" fill="#EDE100"/>
</svg>
