<svg width="412" height="56" viewBox="0 0 412 56" fill="none" xmlns="http://www.w3.org/2000/svg">
<g clip-path="url(#clip0_733_5056)">
<path d="M149.408 31.4996C155.206 31.4996 159.912 36.1986 159.912 42.0014H165.16L149.408 0L133.656 42.0014H138.905C138.905 36.2044 143.605 31.4996 149.408 31.4996Z" fill="black"/>
<path d="M170.416 56.0005L165.167 42.002H159.918C159.918 47.799 155.219 52.5038 149.415 52.5038C143.611 52.5038 138.912 47.8048 138.912 42.002H133.663L128.414 56.0005H170.422H170.416Z" fill="#EDE100"/>
<path d="M149.41 31.5C143.612 31.5 138.906 36.1989 138.906 42.0018H159.907C159.907 36.2047 155.208 31.5 149.404 31.5H149.41Z" fill="#C82F80"/>
<path d="M28.981 35.7019C24.7323 35.7019 21.2812 32.2457 21.2812 28.0033C21.2812 23.761 24.738 20.3047 28.981 20.3047C33.224 20.3047 36.6807 23.761 36.6807 28.0033C36.6807 32.2457 33.224 35.7019 28.981 35.7019ZM28.981 21.7034C25.5069 21.7034 22.6802 24.5297 22.6802 28.0033C22.6802 31.4769 25.5069 34.3032 28.981 34.3032C32.4551 34.3032 35.2818 31.4769 35.2818 28.0033C35.2818 24.5297 32.4551 21.7034 28.981 21.7034Z" fill="#609EC0"/>
<path d="M28.9816 0H0.980469V27.9971C0.980469 12.5363 13.5186 0 28.9816 0Z" fill="#609EC0"/>
<path d="M56.2842 27.2979H28.9824V28.6966H56.2842V27.2979Z" fill="black"/>
<path d="M55.5897 27.2978V28.0029C55.5897 42.6661 43.6528 54.6013 28.9874 54.6013C14.3221 54.6013 2.38515 42.6661 2.38515 28.0029C2.38515 13.3397 14.3105 1.40448 28.9874 1.40448V0C13.5186 0 0.980469 12.5363 0.980469 28.0029C0.980469 43.4695 13.5186 56 28.9816 56C44.4447 56 56.9828 43.4637 56.9828 28.0029V27.2978H55.5839H55.5897Z" fill="black"/>
<path d="M74.4102 13.999L116.418 56.0005H74.4102V13.999Z" fill="#C82F80"/>
<path d="M116.408 20.7262C116.408 20.4372 116.397 20.1424 116.385 19.8592C116.385 19.7956 116.373 19.7378 116.373 19.6743C116.35 19.3448 116.327 19.0212 116.292 18.6975C116.292 18.6917 116.292 18.6802 116.292 18.6744C115.125 8.16679 106.223 0 95.413 0H74.4121V13.9986L75.811 15.3973V1.40448H95.413C106.223 1.40448 115.015 10.1955 115.015 21.0036C115.015 31.8117 106.223 40.6027 95.413 40.6027H74.4121V42.0014H95.413C101.939 42.0014 107.766 39.0249 111.622 34.3606C111.72 34.245 111.813 34.1236 111.905 34.0023C112.021 33.8578 112.136 33.7133 112.246 33.5688C114.865 30.0663 116.42 25.7141 116.42 21.0036C116.42 20.9111 116.414 20.8187 116.414 20.7262H116.408Z" fill="black"/>
<path d="M218.782 0H190.781V27.9971C190.775 12.5363 203.314 0 218.782 0Z" fill="#C82F80"/>
<path d="M190.775 28.0029V56H218.777C203.313 56 190.775 43.4638 190.775 28.0029Z" fill="#C82F80"/>
<path d="M225.274 1.47962C227.65 2.06337 229.945 2.95923 232.089 4.16142C229.939 2.96501 227.65 2.06337 225.274 1.47962ZM232.089 51.827C229.933 53.0408 227.627 53.9424 225.234 54.5262C227.621 53.9424 229.927 53.0408 232.089 51.827ZM218.782 0C203.319 0 190.781 12.5363 190.781 27.9971C190.781 43.4579 203.319 55.9942 218.782 55.9942C223.887 55.9942 228.661 54.6244 232.783 52.2374V50.5959C228.713 53.1275 223.916 54.5897 218.782 54.5897C204.111 54.5897 192.18 42.6546 192.18 27.9913C192.18 13.3281 204.111 1.3987 218.782 1.3987C223.916 1.3987 228.713 2.86676 232.783 5.39251V3.75106C228.661 1.3698 223.881 0 218.782 0Z" fill="black"/>
<path d="M276.391 1.3987V12.5999H265.188V1.3987H276.391ZM277.79 0H263.789V13.9986H277.79V0Z" fill="black"/>
<path d="M277.79 13.998H263.789V55.9995H277.79V13.998Z" fill="#C82F80"/>
<path d="M312.184 31.4996C317.982 31.4996 322.687 36.1986 322.687 42.0014H327.936L312.184 0L296.432 42.0014H301.68C301.68 36.2044 306.38 31.4996 312.184 31.4996Z" fill="black"/>
<path d="M333.189 56.0005L327.94 42.002H322.692C322.692 47.799 317.992 52.5038 312.188 52.5038C306.385 52.5038 301.685 47.8048 301.685 42.002H296.436L291.188 56.0005H333.195H333.189Z" fill="#EDE100"/>
<path d="M312.185 31.5C306.387 31.5 301.682 36.1989 301.682 42.0018H322.683C322.683 36.2047 317.983 31.5 312.179 31.5H312.185Z" fill="#C82F80"/>
<path d="M411.981 0L397.079 14.9002C395.148 14.3107 393.101 13.9986 390.98 13.9986C379.378 13.9986 369.979 23.4022 369.979 34.9964C369.979 37.1176 370.291 39.1636 370.881 41.094C362.256 38.4874 355.979 30.4766 355.979 20.9978C355.979 9.40366 365.378 0 376.979 0H411.987H411.981Z" fill="#EDE100"/>
<path d="M397.98 21.0039C397.98 32.6038 388.575 42.0017 376.979 42.0017C374.858 42.0017 372.812 41.6838 370.881 41.1001L383.98 28.0032L397.078 14.9062C397.668 16.8367 397.98 18.8827 397.98 21.0039Z" fill="black"/>
<path d="M411.981 35.0024C411.981 46.6024 402.576 56.0003 390.98 56.0003H355.973L370.875 41.1001C372.806 41.6896 374.852 42.0017 376.974 42.0017C388.575 42.0017 397.974 32.5981 397.974 21.0039C397.974 18.8827 397.662 16.8367 397.073 14.9062C405.697 17.5129 411.975 25.5237 411.975 35.0024H411.981Z" fill="#609EC0"/>
</g>
<defs>
<clipPath id="clip0_733_5056">
<rect width="411" height="56" fill="white" transform="translate(0.980469)"/>
</clipPath>
</defs>
</svg>
