<svg xmlns="http://www.w3.org/2000/svg" preserveAspectRatio="xMidYMid slice">
    <symbol id="pencil">
        <path d="M59.5498 4.03316C55.9494 0.0346239 52.5407 -1.12597 47.9177 1.16133C43.8273 3.17754 40.6316 7.59118 37.4076 11.0984C32.5573 16.3761 27.8775 21.891 23.2758 27.4822C18.8374 32.887 14.4771 38.385 10.202 43.9762C8.29887 46.4668 6.14714 48.9404 4.4996 51.7106C4.43569 51.7953 4.37888 51.88 4.32917 51.9986C4.25816 52.1172 4.22265 52.2358 4.18714 52.346C3.05091 55.0738 2.58222 58.4031 2.02121 61.3088C1.11223 65.9681 0.366577 70.6782 0.00440397 75.4392C-0.0666103 76.3456 0.735851 76.7777 1.35367 76.6676C7.58162 75.507 13.7315 73.8635 19.9381 72.5589C22.4662 72.0252 23.5669 69.9497 25.3352 67.764C28.2965 64.1128 31.2436 60.4362 34.1978 56.7681C39.6801 49.9401 45.1624 43.1205 50.737 36.4027C55.3316 30.8623 61.8223 24.856 64.0166 17.2317C65.6358 11.6067 62.852 7.71825 59.5569 4.0501L59.5498 4.03316ZM52.9597 30.3879C50.4103 27.8719 48.4716 24.9408 46.1779 22.0435C43.7705 18.9938 41.1856 16.1558 38.5935 13.3264C39.0693 12.8011 39.538 12.2844 40.0138 11.7591C44.8215 17.4011 49.5652 23.1109 54.2451 28.8969C53.819 29.3967 53.3929 29.8881 52.9597 30.3794V30.3879ZM47.2431 36.9957C42.7337 30.9216 37.4644 25.7032 32.3514 20.3662C32.7704 19.8833 33.1965 19.3919 33.6225 18.9091C39.0551 23.6616 43.6569 29.922 48.3935 35.6063C48.2089 35.8181 48.0313 36.0384 47.8538 36.2502C47.6479 36.4958 47.449 36.75 47.2431 36.9957ZM19.7322 61.3511C19.7322 61.3511 19.7322 61.3511 19.7251 61.3511C17.7012 61.4952 15.6701 61.4952 13.6391 61.5714C13.5681 59.7246 13.5823 56.785 13.0142 55.0738C16.6714 50.7957 19.8245 46.1279 23.3113 41.6719C27.2455 36.6483 31.4211 31.8619 35.4902 26.9909C37.6064 29.1934 39.6943 31.4384 41.704 33.768C34.5741 43.1798 27.3236 52.4561 19.7393 61.3511H19.7322ZM37.4147 14.6225C37.7911 15.0376 38.1675 15.4442 38.5438 15.8593C37.7911 16.9013 36.9886 17.884 36.1435 18.8159C35.6962 18.3923 35.2346 17.9857 34.7801 17.579C35.6535 16.5879 36.5341 15.6052 37.4147 14.6225ZM42.6271 25.8472C43.458 25.0594 44.2392 24.2037 44.9777 23.2888C45.0061 23.3227 45.0274 23.3481 45.0558 23.382C45.5032 23.9496 45.9293 24.5087 46.3554 25.0678C45.6808 26.0082 44.9493 26.8722 44.1539 27.6686C43.6497 27.0501 43.1385 26.4487 42.6271 25.8387V25.8472ZM41.4838 24.5087C41.0435 24.0004 40.6032 23.4837 40.163 22.9838C40.8944 22.035 41.6472 21.1116 42.4141 20.2052C42.9041 20.7728 43.3799 21.3488 43.8557 21.9249C43.11 22.8398 42.3218 23.7124 41.4838 24.5087ZM38.977 21.7047C38.4515 21.1371 37.9189 20.5864 37.3792 20.0358C38.203 19.1209 38.9841 18.1636 39.7156 17.147C40.234 17.7231 40.7524 18.2991 41.2637 18.8752C40.4825 19.7986 39.7227 20.7389 38.977 21.6962V21.7047ZM45.2618 29.0409C46.0429 28.2616 46.7602 27.4144 47.4206 26.4995C47.8893 27.1264 48.3651 27.7448 48.848 28.3548C48.1379 29.185 47.4632 30.049 46.8099 30.947C46.2986 30.3117 45.7802 29.6848 45.2618 29.0494V29.0409ZM18.7735 36.6992C22.7148 31.7433 26.7271 26.8807 30.8175 22.1198C31.9679 23.3227 33.1254 24.5172 34.283 25.7201C30.2423 30.5658 26.095 35.3098 22.1821 40.308C18.6953 44.764 15.5423 49.4318 11.8851 53.7099C11.2673 53.4981 10.4719 53.4642 10.0245 53.371C8.85278 53.1169 7.67394 52.9051 6.49511 52.7187C9.9464 46.9412 14.7186 41.799 18.7735 36.6992ZM10.6494 72.2709C8.9735 69.6871 6.28206 66.4849 3.69004 63.9942C3.81077 63.3165 3.93149 62.6473 4.06642 61.9696C4.52801 59.5975 4.89018 56.8358 5.69264 54.4808C7.38988 54.6587 10.0458 54.701 11.5371 55.6075C10.9619 55.3788 11.53 56.8782 11.6294 57.8524C11.7928 59.4112 11.949 60.9699 12.0981 62.5202C12.1478 63.02 12.4248 63.4944 12.8935 63.469C14.399 63.4012 15.9471 63.5114 17.4455 63.3504C19.0788 63.1725 19.022 62.7828 19.1996 64.6974C19.3629 66.4425 19.4765 68.1961 19.583 69.9412C19.3984 70.0175 19.2138 70.0852 19.022 70.1445C16.2738 70.9663 13.4687 71.644 10.6494 72.2539V72.2709ZM33.5941 53.82C31.0589 56.9714 28.5308 60.1228 25.9956 63.2657C24.4546 65.1718 22.9846 67.5523 21.1311 69.0178C21.0104 67.0016 20.8684 64.9769 20.6127 62.9861C28.2894 54.0064 35.618 44.62 42.8331 35.098C43.8344 36.301 44.8144 37.5378 45.7518 38.8086C41.6756 43.7813 37.6277 48.7964 33.5941 53.82ZM49.5297 34.2594C48.99 33.6155 48.4503 32.9632 47.9177 32.3109C48.571 31.413 49.2528 30.5489 49.9629 29.7102C50.5381 30.3879 51.1489 31.0487 51.7951 31.6925C51.0281 32.5566 50.2683 33.4122 49.5297 34.2594ZM61.382 18.0789C60.0114 21.3404 57.9733 24.2969 55.7293 27.084C51.0707 21.3234 46.3554 15.6475 41.569 10.0394C41.6756 9.9293 41.775 9.8107 41.8815 9.6921C45.0984 6.22727 49.125 1.04273 53.9752 2.64384C56.2193 3.38086 58.0585 5.71898 59.5711 7.71825C62.0353 10.9628 63.2 13.733 61.3749 18.0873L61.382 18.0789Z" fill="currrentColor" />
        <path d="M48.6979 35.0549C48.4863 33.7443 46.7937 34.2981 46.9975 35.6086C47.2952 37.4915 47.7027 39.3373 48.2199 41.1555C48.5803 42.42 50.2807 41.8754 49.9203 40.6018C49.4031 38.7836 49.0035 36.9377 48.6979 35.0549Z" fill="currrentColor" />
        <path d="M51.2168 35.0114C50.8719 33.7698 49.2448 34.3045 49.5897 35.5552C50.0096 37.087 50.437 38.6277 50.8569 40.1595C51.2018 41.4011 52.8289 40.8664 52.4839 39.6157C52.064 38.0839 51.6367 36.5432 51.2168 35.0114Z" fill="currrentColor" />
    </symbol>
    <symbol id="phone">
        <path d="M45.9753 64.995C45.9682 59.183 45.8759 53.371 45.7268 47.5674C45.4499 36.5054 45.0666 25.4349 44.5057 14.3897C44.1152 6.72423 41.6231 2.08638 34.8783 0.870313C27.3311 -0.496719 19.3722 0.0232565 11.7825 0.568392C8.37454 0.811606 4.90271 1.20578 2.83666 4.83722C0.820302 8.38479 0.735103 13.4923 0.394311 17.6185C-0.549969 29.2006 0.529208 41.009 0.294913 52.6414C0.273613 60.2901 0.060618 68.0142 0.635706 75.6377C0.997798 80.4014 1.84268 84.0579 5.7192 86.4901C8.41004 88.1674 12.5209 87.7229 15.4034 87.7481C20.5579 87.79 25.6982 87.3875 30.8527 87.2533C36.7242 87.1023 44.5696 87.4294 45.7268 78.5731C46.3019 74.1952 45.9753 69.4232 45.9682 65.0034L45.9753 64.995ZM43.6182 78.0531C42.5816 84.4689 37.491 84.645 32.9684 84.6953C25.7124 84.7708 18.4492 85.5927 11.1932 85.0895C8.26804 84.8882 4.82462 83.9992 3.44725 80.4936C2.61656 78.3718 2.73016 75.4364 2.62366 73.1469C2.29707 66.3201 2.41067 59.4682 2.43197 52.633C2.58106 45.0095 2.53846 37.3944 2.26867 29.7793C2.12667 25.7033 2.19057 21.6693 2.52427 17.6102C2.90766 12.9388 2.94316 5.81846 7.36636 3.77211C10.2702 2.42185 14.4023 2.89151 17.5191 2.76571C20.7212 2.63152 23.9303 2.58959 27.1323 2.707C30.1498 2.82441 33.4299 2.79925 36.355 3.74695C41.0125 5.25655 42.1059 9.10605 42.3828 14.3813C43.2703 31.4901 43.8454 48.6829 43.8525 65.8169C43.8525 69.7419 44.2501 74.1784 43.6253 78.0447L43.6182 78.0531Z" fill="currrentColor" />
        <path d="M18.7694 9.03059C21.5952 8.87124 24.4209 8.79576 27.2538 8.79576C28.2832 8.79576 28.2832 6.90875 27.2538 6.90875C24.4209 6.90875 21.5952 6.98423 18.7694 7.14358C17.7471 7.20229 17.74 9.08929 18.7694 9.03059Z" fill="currrentColor" />
        <path d="M30.7887 8.61119C30.7887 8.61119 30.8242 8.56926 30.8384 8.55249C31.5697 7.68866 30.4337 6.35517 29.7095 7.219C29.6953 7.23578 29.674 7.26094 29.6598 7.27771C28.9286 8.14154 30.0645 9.47502 30.7887 8.61119Z" fill="currrentColor" />
        <path d="M34.0192 8.66161C34.0192 8.66161 34.0547 8.61968 34.0689 8.6029C34.8002 7.73907 33.6642 6.40559 32.94 7.26942C32.9258 7.28619 32.9045 7.31135 32.8903 7.32812C32.159 8.19195 33.295 9.52544 34.0192 8.66161Z" fill="currrentColor" />
        <path d="M23.632 77.4745C21.4027 77.4493 17.0789 76.8538 16.802 80.6111C16.5464 84.0748 21.2607 83.6974 23.0854 83.6303C24.8319 83.5632 29.1415 83.8148 29.2622 80.7704C29.4184 76.8455 25.8543 77.4409 23.6391 77.4745H23.632ZM27.3595 80.9885C26.6566 81.953 23.7598 81.7433 22.7162 81.7601C21.9778 81.7684 18.9106 81.9362 18.6692 81.3072C17.7534 78.8918 22.8582 79.3615 23.6249 79.3699C24.3278 79.3615 28.8149 79.0008 27.3524 80.9969L27.3595 80.9885Z" fill="currrentColor" />
        <path d="M41.2608 13.1486C41.2466 13.115 41.2324 13.0815 41.2111 13.0479C41.0975 12.7712 40.8774 12.5531 40.5366 12.5615C28.6089 12.6789 16.6741 13.2912 4.73921 13.0815C4.37712 13.0815 4.14992 13.3079 4.04342 13.6099C4.04342 13.6182 4.02922 13.635 4.02922 13.6434C4.02212 13.6686 4.01502 13.7021 4.00792 13.7273C3.97952 13.8195 3.94402 13.9118 3.94402 14.0208C3.41864 23.9171 4.26352 33.8302 4.08602 43.7349C3.90143 54.2686 3.39024 64.7771 3.66003 75.3192C3.66003 75.5037 3.71683 75.6462 3.78073 75.7804C3.89433 76.0572 4.11442 76.2752 4.46231 76.2669C10.696 76.0823 16.9083 76.3675 23.142 75.9565C29.4538 75.5456 35.7371 76.0488 42.0418 75.8475C42.1838 75.8475 42.2974 75.7972 42.3968 75.7385C42.6595 75.6211 42.8583 75.3443 42.837 74.9082C42.0134 54.4614 42.1483 33.956 41.3318 13.5092C41.3318 13.375 41.2963 13.2576 41.2537 13.157L41.2608 13.1486ZM23.142 74.0695C17.171 74.4469 11.2143 74.2121 5.2433 74.3631C5.0232 64.1481 5.50599 53.9499 5.68349 43.7432C5.85388 34.1573 5.08 24.5629 5.50599 14.9769C16.9296 15.1446 28.3533 14.5911 39.7699 14.4569C40.5366 34.2747 40.4443 54.1511 41.2111 73.9773C35.1834 74.1199 29.1698 73.6921 23.142 74.0695Z" fill="currrentColor" />
        <path d="M13.0749 19.8831C11.5342 21.3759 10.2563 23.1874 9.2765 25.2338C8.76531 26.2905 10.1498 27.2466 10.6539 26.1899C11.5768 24.2693 12.7625 22.6255 14.2038 21.225C14.999 20.4534 13.863 19.1283 13.0749 19.8915V19.8831Z" fill="currrentColor" />
        <path d="M16.5469 20.5455C15.5814 21.8874 14.6158 23.2293 13.6502 24.5711C12.9899 25.4937 14.1117 26.8355 14.7791 25.9046C15.7447 24.5628 16.7102 23.2209 17.6758 21.879C18.3361 20.9565 17.2143 19.6146 16.5469 20.5455Z" fill="currrentColor" />
    </symbol>
    <symbol id="bulb">
        <path d="M19.2332 19.6649C11.4162 25.4517 6.73032 38.2247 10.0176 48.7248C11.0825 52.1382 12.4315 55.4425 14.2065 58.4282C15.1223 59.9714 16.1873 61.3132 17.2452 62.7138C18.8285 64.8105 19.2687 66.4375 19.865 68.9703C20.1135 70.0186 20.3762 70.7483 20.7667 71.2682C20.0851 72.1656 19.8224 73.432 20.3833 74.5223C18.9989 76.6357 19.6165 77.9273 21.1004 78.7156C18.8143 82.758 23.6138 83.6051 27.9944 83.6386C28.0725 84.4353 28.1648 85.2992 28.4417 85.9701C28.8818 87.0184 30.0604 87.1191 30.9337 87.1023C31.9206 87.0855 33.298 86.9765 34.157 86.3643C34.9664 85.7856 35.1581 84.4605 35.2291 83.3367C37.7425 83.4038 41.5693 83.6302 42.833 81.7432C43.6069 80.5858 43.2377 79.5124 42.5278 78.6905C43.7418 77.9189 44.2175 76.7028 43.2235 74.8242C43.7773 73.8094 43.4507 72.5514 42.5562 71.4611C42.7266 71.2179 42.8899 70.9328 43.0318 70.5805C43.5998 69.1716 43.259 67.6284 43.5572 66.144C44.0045 63.8963 45.2612 62.7474 46.2836 60.9442C47.8029 58.2772 49.9045 55.7025 51.0973 52.8343C54.988 43.4412 53.3905 30.3495 47.1924 22.9105C39.6594 13.8781 28.2429 12.9891 19.2261 19.6649H19.2332ZM29.5918 38.5517C29.8048 37.0254 30.5219 36.1448 31.7502 35.9015C32.6164 36.715 32.9217 37.7634 32.6732 39.0465C32.7158 40.4891 32.1549 41.7722 31.2603 42.8457C30.2308 41.6129 29.4356 40.0865 29.5918 38.5517ZM31.1254 45.2863C32.2969 46.4185 33.6245 47.2823 34.8528 47.7519C33.085 54.9561 33.4967 63.6699 33.8588 70.7986C33.0921 70.765 32.375 70.7315 31.7644 70.7315C30.7988 70.7315 29.7835 70.7315 28.7683 70.6728C28.7044 67.5781 28.9528 55.669 27.3412 47.4081C28.7612 46.8965 30.0959 46.1081 31.1254 45.2779V45.2863ZM31.7644 73.2475C34.3274 73.2223 36.9331 73.0714 39.489 72.8282C40.1209 72.7695 40.6818 72.694 41.1788 72.5262C42.7408 74.3965 38.1756 74.7906 37.0751 74.841C35.3356 74.9248 33.5961 74.8745 31.8567 74.8074C30.2592 74.7487 28.6547 74.69 27.0643 74.5726C25.9851 74.4971 20.3052 73.6836 22.208 72.2411C22.4068 72.3082 22.6198 72.3585 22.8612 72.4088C25.7366 73.0043 28.8534 73.2559 31.7715 73.2391L31.7644 73.2475ZM40.7954 77.6421C40.1635 77.7344 39.5316 77.8266 38.8997 77.9189C38.1046 78.0027 37.3023 78.0363 36.5071 78.0615C34.725 78.1118 32.9359 78.0363 31.1538 78.0195C29.7125 78.0027 28.2784 77.9776 26.8371 77.8937C26.4324 77.8686 21.0223 77.6757 21.6542 75.7719C23.9617 77.0718 28.2003 76.5351 30.1953 76.6273C33.5961 76.7783 38.0265 77.5415 41.3705 76.2415L40.8025 77.6505L40.7954 77.6421ZM32.9785 84.8798C32.3892 85.1398 31.5514 85.2069 30.9337 85.2153C30.6639 85.2153 30.2876 85.274 30.0391 85.1314C29.8048 84.9973 29.9894 85.1734 29.8332 84.8715C29.6912 84.5863 29.6273 84.0747 29.5776 83.6134C31.4094 83.5547 32.9643 83.4038 33.6245 83.3535C33.5748 83.9908 33.4329 84.6786 32.9785 84.8798ZM40.7883 79.4872C40.2629 80.8039 39.4464 81.349 38.3388 81.1394C37.5153 81.1981 36.6988 81.2484 35.8752 81.3071C34.4765 81.3994 33.085 81.5 31.6863 81.5755C30.5858 81.6342 21.0081 82.0116 22.6056 79.4285C22.634 79.3866 22.6482 79.3446 22.6695 79.3027C25.6301 80.091 29.8616 79.8981 31.1538 79.9065C32.446 79.9233 37.4372 80.3342 40.7386 79.4369C40.7599 79.4536 40.7741 79.4704 40.7954 79.4872H40.7883ZM50.4512 46.1417C49.8548 49.5299 49.2513 51.6434 47.4125 54.4865C45.9215 56.8012 44.395 59.1662 43.0531 61.6068C42.3787 62.8228 41.7965 64.0473 41.5054 65.4814C41.1007 67.4523 41.7468 69.2806 39.489 70.3121C38.4382 70.7986 36.9473 70.8741 35.4634 70.8489C35.1013 63.6447 34.7747 55.2413 36.4787 48.1293C39.5387 48.4313 44.0258 46.8378 43.2448 42.5606C42.116 36.4383 37.2952 40.7742 35.9533 44.2211C35.7474 44.7495 35.5628 45.2863 35.3853 45.8398C34.725 45.5882 34.1286 45.2863 33.6884 45.0011C33.3051 44.7579 32.8791 44.4308 32.4531 44.0534C34.7392 41.5877 35.6622 38.4175 33.3406 35.2222C31.4449 32.6223 28.6618 34.3835 28.0583 37.6292C27.6323 39.9355 28.5553 42.1999 30.0107 44.045C29.0877 44.7663 28.0228 45.3114 26.9649 45.6553C25.765 40.7994 23.7558 37.7802 20.3762 39.793C18.4167 40.9587 18.6581 44.196 19.936 45.9404C21.4057 47.9448 23.6422 48.2971 25.8573 47.8442C26.4679 51.2073 26.4537 54.7381 26.6099 58.1514C26.7945 62.2861 26.9862 66.4291 27.1708 70.5637C26.1697 70.4631 25.1757 70.3038 24.2385 70.0605C22.7405 69.6664 22.4352 69.7167 21.8246 67.8213C21.4199 66.5717 21.4767 65.2214 20.9442 63.9886C19.6449 61.0197 16.9967 58.8895 15.4347 56.0632C13.7237 52.9601 12.0126 49.1945 11.3594 45.5462C10.3228 39.7762 11.8919 33.6371 14.5473 28.8651C18.4167 21.9125 24.3592 18.4404 31.3029 17.7947C37.636 17.2076 44.0968 21.141 47.6041 27.4226C50.7352 33.0333 51.6085 39.7175 50.4725 46.1333L50.4512 46.1417ZM36.9686 46.2927C36.997 46.192 37.0254 46.083 37.0609 45.9823C37.4585 44.5818 38.0833 43.3489 38.9423 42.2838C41.7468 41.1432 42.2793 42.1916 40.5327 45.4288C39.6665 46.4017 38.3104 46.5359 36.9757 46.301L36.9686 46.2927ZM25.4313 46.0075C24.9627 46.0662 24.5154 46.083 24.1037 46.0411C23.0174 45.9404 19.4249 44.565 20.5821 42.1832C22.1583 38.9459 24.8207 43.8941 25.2609 45.345C25.3248 45.563 25.3745 45.7895 25.4313 46.0159V46.0075Z" fill="currrentColor" />
        <path d="M60.8027 20.8808C58.5023 22.1137 56.1523 23.2459 54.0933 24.9987C52.9929 25.938 54.0507 28.1186 55.1654 27.1709C57.2244 25.4264 59.5815 24.2858 61.8748 23.053C63.1243 22.3821 62.0381 20.2183 60.8027 20.8808Z" fill="currrentColor" />
        <path d="M45.3534 15.0017C46.9296 12.6115 48.1436 10.0116 49.3932 7.37818C50.0606 5.96082 48.2217 4.69443 47.5544 6.11178C46.3971 8.54393 45.3108 11.018 43.8482 13.2237C43.0176 14.4817 44.5085 16.2765 45.3534 15.0017Z" fill="currrentColor" />
        <path d="M31.8702 9.71808C32.0335 6.88338 32.1116 4.05706 32.0974 1.21397C32.0903 -0.404658 29.9603 -0.404658 29.9674 1.21397C29.9816 4.04868 29.9035 6.88338 29.7402 9.71808C29.6479 11.3367 31.7779 11.3283 31.8702 9.71808Z" fill="currrentColor" />
        <path d="M16.8765 14.9682C17.6362 16.3101 19.4822 15.0521 18.7154 13.7018C17.2741 11.1607 15.6483 8.65306 14.7253 5.77642C14.2425 4.2752 12.1835 4.92936 12.6734 6.44736C13.6674 9.55882 15.3217 12.2342 16.8765 14.9766V14.9682Z" fill="currrentColor" />
        <path d="M8.07166 24.7638C5.9701 22.9355 3.69815 21.4846 1.2771 20.3356C0.00623054 19.7318 -0.547558 22.1639 0.709116 22.7594C2.95977 23.8245 5.04712 25.2334 6.99248 26.9275C8.10006 27.892 9.15793 25.7031 8.06456 24.7554L8.07166 24.7638Z" fill="currrentColor" />
        <path d="M24.2029 22.8518C19.233 24.5626 14.7459 30.8778 14.0572 36.8995C13.9223 38.0904 15.463 38.602 15.5979 37.4027C16.2155 32.0184 20.1489 26.2148 24.6289 24.6717C25.6157 24.3362 25.1968 22.5079 24.2029 22.8518Z" fill="currrentColor" />
        <path d="M25.1971 26.0973C23.6706 26.3489 22.2435 27.5985 21.3135 29.0159C20.6887 29.9636 21.8176 31.3138 22.4423 30.3494C23.2233 29.1501 24.3238 28.1353 25.616 27.9172C26.6312 27.7495 26.1982 25.9296 25.19 26.0973H25.1971Z" fill="currrentColor" />
    </symbol>
    <symbol id="star">
        <path d="M75.2516 26.5642C73.7966 22.4799 69.2362 23.2598 65.7082 23.134C60.3756 22.9411 55.0024 23.5114 49.686 23.2263C48.4179 18.6052 47.3449 13.9254 46.1255 9.28759C45.085 5.32069 43.256 0.833806 38.8013 0.0957773C35.1758 -0.508065 33.1273 1.81505 31.9242 5.04393C29.6644 11.0991 28.3637 17.3891 25.8275 23.3689C19.8771 23.3521 13.8373 23.2514 7.91124 23.5953C5.15552 23.7546 1.54625 23.9895 0.400068 27.0338C-0.908696 30.4892 1.20484 33.1729 3.68417 35.1102C5.74893 36.7205 7.94376 38.163 10.0492 39.7229C12.4472 41.5009 15.8207 43.3543 17.6579 45.6691C19.4706 47.9503 16.6824 52.781 15.7882 55.3389C14.829 58.0814 13.6828 60.8322 13.0487 63.6837C12.3334 66.8958 12.0733 71.7685 15.2111 73.8735C18.3651 75.987 22.5353 71.9614 24.9496 70.175C29.4042 66.8874 33.5256 63.1553 38.1429 60.0942C42.2236 64.1617 46.5401 67.9945 51.1655 71.3911C53.8724 73.3787 57.8313 75.7689 61.0991 73.5464C64.0987 71.5085 63.9524 67.3655 62.9769 64.254C61.1723 58.5175 59.3676 52.7978 57.628 47.0277C62.2046 43.6311 66.7325 40.1003 71.1872 36.536C74.2924 34.0535 76.7718 30.7911 75.2598 26.5558L75.2516 26.5642ZM65.0579 38.0707C61.9039 40.5448 58.8067 43.086 55.5795 45.4678C55.1487 45.7865 54.8479 46.3232 55.0186 46.8851C56.1811 50.743 57.0184 54.6932 58.254 58.5259C59.2376 61.587 62.1477 66.1158 60.9121 69.3699C57.9451 77.2366 42.1586 60.6561 39.1428 57.6117C38.7607 57.2259 38.1266 57.1169 37.6633 57.4188C34.7369 59.2891 31.9974 61.4109 29.2904 63.5998C26.3721 65.9565 22.8279 69.6718 19.2674 70.9885C17.8448 71.5169 16.3654 71.3575 15.3005 69.7053C14.8371 68.9925 14.9916 67.3487 15.0403 66.4932C15.1542 64.5308 15.8695 62.5599 16.4873 60.7148C18.0806 55.9763 19.7958 51.2798 21.446 46.5665C21.576 46.1891 21.446 45.602 21.1289 45.342C18.4139 43.0608 15.6582 40.8383 12.8293 38.6997C10.1304 36.6618 4.22069 33.9109 3.08263 30.6066C1.12355 24.8952 10.2117 26.0945 13.3983 26.0526C17.7798 25.9939 22.1532 25.8765 26.5347 25.8765C26.9737 25.9771 27.437 25.8178 27.6809 25.2559C29.201 21.8089 30.5098 18.2865 31.6316 14.6719C32.7046 11.2165 33.8752 1.5299 38.8257 2.84661C43.5405 4.10462 44.0608 11.3675 45.1338 15.435C45.9548 18.5381 46.7027 21.6664 47.5725 24.7527C47.7351 25.3146 48.1984 25.6333 48.7512 25.6752C51.8158 25.91 54.8804 25.65 57.9532 25.5913C61.4974 25.5242 66.196 24.8533 69.6264 25.8513C79.1048 28.6105 67.4641 36.1753 65.0579 38.0623V38.0707Z" fill="currrentColor" />
        <path d="M21.983 29.7596C19.967 30.7827 18.138 32.1246 16.5284 33.7432C15.683 34.5903 16.9755 35.9238 17.8209 35.0767C19.3248 33.5587 21.0238 32.3427 22.9097 31.3866C23.9664 30.8498 23.0397 29.2228 21.983 29.7596Z" fill="currrentColor" />
        <path d="M28.4208 31.0092C25.6407 32.1665 23.0069 33.5923 20.5276 35.3367C19.5602 36.016 20.4707 37.6514 21.4543 36.9637C23.8035 35.3115 26.2829 33.9277 28.9167 32.8291C29.9978 32.3846 29.5263 30.5563 28.4289 31.0092H28.4208Z" fill="currrentColor" />
    </symbol>
</svg>
