<?xml version="1.0" encoding="UTF-8" standalone="no"?>
<!-- Created with Inkscape (http://www.inkscape.org/) -->

<svg
   version="1.1"
   id="svg2"
   width="298.46664"
   height="6000"
   viewBox="0 0 298.46664 6000"
   sodipodi:docname="separator.svg"
   inkscape:version="1.1.2 (0a00cf5339, 2022-02-04)"
   xmlns:inkscape="http://www.inkscape.org/namespaces/inkscape"
   xmlns:sodipodi="http://sodipodi.sourceforge.net/DTD/sodipodi-0.dtd"
   xmlns="http://www.w3.org/2000/svg"
   xmlns:svg="http://www.w3.org/2000/svg">
  <defs
     id="defs6" />
  <sodipodi:namedview
     id="namedview4"
     pagecolor="#ffffff"
     bordercolor="#000000"
     borderopacity="0.25"
     inkscape:showpageshadow="2"
     inkscape:pageopacity="0.0"
     inkscape:pagecheckerboard="0"
     inkscape:deskcolor="#d1d1d1"
     inkscape:pageshadow="2"
     showgrid="false"
     fit-margin-top="0"
     fit-margin-left="0"
     fit-margin-right="0"
     fit-margin-bottom="0"
     inkscape:zoom="0.269"
     inkscape:cx="940.52045"
     inkscape:cy="3901.487"
     inkscape:window-width="1846"
     inkscape:window-height="1016"
     inkscape:window-x="74"
     inkscape:window-y="27"
     inkscape:window-maximized="1"
     inkscape:current-layer="g10" />
  <g
     id="g8"
     inkscape:groupmode="layer"
     inkscape:label="ink_ext_XXXXXX"
     transform="matrix(1.3333333,0,0,-1.3333333,0,5999.9998)">
    <g
       id="g10"
       transform="scale(0.1)">
      <path
         d="M 0,43904.7 V 45000 H 1096.75 L 0.738281,43904 0,43904.7"
         style="fill:#141418;fill-opacity:1;fill-rule:nonzero;stroke:none"
         id="path14" />
      <path
         d="M 1048.2,42750 0.738281,41702.5 0,41703.3 v 2093.4 l 0.738281,0.8 L 1048.2,42750"
         style="fill:#141418;fill-opacity:1;fill-rule:nonzero;stroke:none"
         id="path56" />
      <path
         d="M 999.652,40500 0.738281,39501.1 0,39501.8 v 1996.4 l 0.738281,0.7 L 999.652,40500"
         style="fill:#141418;fill-opacity:1;fill-rule:nonzero;stroke:none"
         id="path98" />
      <path
         d="M 951.098,38250 0.738281,37299.6 0,37300.4 v 1899.2 l 0.738281,0.8 L 951.098,38250"
         style="fill:#141418;fill-opacity:1;fill-rule:nonzero;stroke:none"
         id="path140" />
      <path
         d="M 902.551,36000 0.738281,35098.2 0,35098.9 v 1802.2 l 0.738281,0.7 L 902.551,36000"
         style="fill:#141418;fill-opacity:1;fill-rule:nonzero;stroke:none"
         id="path182" />
      <path
         d="M 854,33750 0.738281,32896.7 0,32897.5 v 1705 l 0.738281,0.8 L 854,33750"
         style="fill:#141418;fill-opacity:1;fill-rule:nonzero;stroke:none"
         id="path224" />
      <path
         d="M 805.449,31500 0.738281,30695.3 0,30696 v 1608 l 0.738281,0.7 L 805.449,31500"
         style="fill:#141418;fill-opacity:1;fill-rule:nonzero;stroke:none"
         id="path266" />
      <path
         d="M 756.898,29250 0.738281,28493.8 0,28494.6 v 1510.8 l 0.738281,0.8 L 756.898,29250"
         style="fill:#141418;fill-opacity:1;fill-rule:nonzero;stroke:none"
         id="path308" />
      <path
         d="M 708.344,27000 0.738281,26292.4 0,26293.1 v 1413.8 l 0.738281,0.7 L 708.344,27000"
         style="fill:#141418;fill-opacity:1;fill-rule:nonzero;stroke:none"
         id="path350" />
      <path
         d="M 659.797,24750 0.738281,24090.9 0.00390625,24091.7 0,25408.3 0.738281,25409.1 659.797,24750"
         style="fill:#141418;fill-opacity:1;fill-rule:nonzero;stroke:none"
         id="path392" />
      <path
         d="m 611.246,22500 -610.507719,-610.5 -0.73437475,0.7 v 1219.6 L 0.738281,23110.5 611.246,22500"
         style="fill:#141418;fill-opacity:1;fill-rule:nonzero;stroke:none"
         id="path434" />
      <path
         d="m 562.695,20250 -561.956719,-562 -0.73437475,0.8 v 1122.4 L 0.738281,20812 562.695,20250"
         style="fill:#141418;fill-opacity:1;fill-rule:nonzero;stroke:none"
         id="path476" />
      <path
         d="m 514.145,18000 -513.406719,-513.4 -0.73437475,0.7 v 1025.4 L 0.738281,18513.4 514.145,18000"
         style="fill:#141418;fill-opacity:1;fill-rule:nonzero;stroke:none"
         id="path518" />
      <path
         d="m 465.59,15750 -464.851719,-464.9 -0.73437475,0.8 v 928.2 L 0.738281,16214.9 465.59,15750"
         style="fill:#141418;fill-opacity:1;fill-rule:nonzero;stroke:none"
         id="path560" />
      <path
         d="m 417.043,13500 -416.304719,-416.3 -0.73437475,0.7 v 831.2 L 0.738281,13916.3 417.043,13500"
         style="fill:#141418;fill-opacity:1;fill-rule:nonzero;stroke:none"
         id="path602" />
      <path
         d="M 368.492,11250 0.738281,10882.2 0.00390625,10883 v 734 L 0.738281,11617.8 368.492,11250"
         style="fill:#141418;fill-opacity:1;fill-rule:nonzero;stroke:none"
         id="path644" />
      <path
         d="M 319.941,9000 0.738281,8680.8 l -0.73437475,0.7 v 637 L 0.738281,9319.2 319.941,9000"
         style="fill:#141418;fill-opacity:1;fill-rule:nonzero;stroke:none"
         id="path686" />
      <path
         d="M 271.391,6750 0.738281,6479.4 l -0.73437475,0.7 v 539.8 L 0.738281,7020.6 271.391,6750"
         style="fill:#141418;fill-opacity:1;fill-rule:nonzero;stroke:none"
         id="path728" />
      <path
         d="M 222.836,4500 0.738281,4277.9 l -0.73437475,0.7 v 442.8 L 0.738281,4722.1 222.836,4500"
         style="fill:#141418;fill-opacity:1;fill-rule:nonzero;stroke:none"
         id="path770" />
      <path
         d="M 174.285,2250 0.738281,2076.4 l -0.73437475,0.8 v 345.6 L 0.738281,2423.6 174.285,2250"
         style="fill:#141418;fill-opacity:1;fill-rule:nonzero;stroke:none"
         id="path812" />
      <path
         d="M 125.738,0 H 0.00390625 V 124.3 L 0.738281,125 125.738,0"
         style="fill:#141418;fill-opacity:1;fill-rule:nonzero;stroke:none"
         id="path854" />
      <path
         d="M 22.5703,43842.2 1118.58,44938.199 2214.6,43842.2 1118.58,42746.1 22.5703,43842.2"
         style="fill:#141418;fill-opacity:1;fill-rule:nonzero;stroke:none"
         id="path896" />
      <path
         d="M 2166.05,41592.2 1118.58,40544.7 71.1172,41592.2 1118.58,42639.6 2166.05,41592.2"
         style="fill:#141418;fill-opacity:1;fill-rule:nonzero;stroke:none"
         id="path936" />
      <path
         d="m 2117.5,39342.2 -998.92,-999 -998.912,999 998.912,998.9 998.92,-998.9"
         style="fill:#141418;fill-opacity:1;fill-rule:nonzero;stroke:none"
         id="path976" />
      <path
         d="m 2068.95,37092.2 -950.37,-950.4 -950.357,950.4 950.357,950.3 950.37,-950.3"
         style="fill:#141418;fill-opacity:1;fill-rule:nonzero;stroke:none"
         id="path1016" />
      <path
         d="m 2020.4,34842.2 -901.82,-901.9 -901.807,901.9 901.807,901.8 901.82,-901.8"
         style="fill:#141418;fill-opacity:1;fill-rule:nonzero;stroke:none"
         id="path1056" />
      <path
         d="m 1971.85,32592.2 -853.27,-853.3 -853.26,853.3 853.26,853.2 853.27,-853.2"
         style="fill:#141418;fill-opacity:1;fill-rule:nonzero;stroke:none"
         id="path1096" />
      <path
         d="m 1923.3,30342.2 -804.72,-804.7 -804.709,804.7 804.709,804.7 804.72,-804.7"
         style="fill:#141418;fill-opacity:1;fill-rule:nonzero;stroke:none"
         id="path1136" />
      <path
         d="m 1874.75,28092.2 -756.17,-756.2 -756.158,756.2 756.158,756.1 756.17,-756.1"
         style="fill:#141418;fill-opacity:1;fill-rule:nonzero;stroke:none"
         id="path1176" />
      <path
         d="m 1826.19,25842.2 -707.61,-707.6 -707.603,707.6 707.603,707.6 707.61,-707.6"
         style="fill:#141418;fill-opacity:1;fill-rule:nonzero;stroke:none"
         id="path1216" />
      <path
         d="m 1777.64,23592.2 -659.06,-659.1 -659.053,659.1 659.053,659 659.06,-659"
         style="fill:#141418;fill-opacity:1;fill-rule:nonzero;stroke:none"
         id="path1256" />
      <path
         d="m 1729.09,21342.2 -610.51,-610.5 -610.506,610.5 610.506,610.5 610.51,-610.5"
         style="fill:#141418;fill-opacity:1;fill-rule:nonzero;stroke:none"
         id="path1296" />
      <path
         d="m 1680.54,19092.2 -561.96,-562 -561.955,562 561.955,561.9 561.96,-561.9"
         style="fill:#141418;fill-opacity:1;fill-rule:nonzero;stroke:none"
         id="path1336" />
      <path
         d="m 1631.99,16842.2 -513.41,-513.4 -513.404,513.4 513.404,513.4 513.41,-513.4"
         style="fill:#141418;fill-opacity:1;fill-rule:nonzero;stroke:none"
         id="path1376" />
      <path
         d="m 1583.44,14592.2 -464.86,-464.9 -464.85,464.9 464.85,464.8 464.86,-464.8"
         style="fill:#141418;fill-opacity:1;fill-rule:nonzero;stroke:none"
         id="path1416" />
      <path
         d="m 1534.89,12342.2 -416.31,-416.3 -416.299,416.3 416.299,416.3 416.31,-416.3"
         style="fill:#141418;fill-opacity:1;fill-rule:nonzero;stroke:none"
         id="path1456" />
      <path
         d="m 1486.34,10092.2 -367.76,-367.8 -367.752,367.8 367.752,367.7 367.76,-367.7"
         style="fill:#141418;fill-opacity:1;fill-rule:nonzero;stroke:none"
         id="path1496" />
      <path
         d="m 1437.79,7842.2 -319.21,-319.3 -319.201,319.3 319.201,319.2 319.21,-319.2"
         style="fill:#141418;fill-opacity:1;fill-rule:nonzero;stroke:none"
         id="path1536" />
      <path
         d="m 1389.24,5592.2 -270.66,-270.7 -270.65,270.7 270.65,270.6 270.66,-270.6"
         style="fill:#141418;fill-opacity:1;fill-rule:nonzero;stroke:none"
         id="path1576" />
      <path
         d="m 1340.68,3342.2 -222.1,-222.1 -222.096,222.1 222.096,222.1 222.1,-222.1"
         style="fill:#141418;fill-opacity:1;fill-rule:nonzero;stroke:none"
         id="path1616" />
      <path
         d="m 1292.13,1092.2 -173.55,-173.6 -173.545,173.6 173.545,173.5 173.55,-173.5"
         style="fill:#141418;fill-opacity:1;fill-rule:nonzero;stroke:none"
         id="path1656" />
      <path
         d="M 2238.5,43904.7 V 45000 H 1141.75 l 1096.0117,-1096 0.7383,0.7"
         style="fill:#141418;fill-opacity:1;fill-rule:nonzero;stroke:none"
         id="path14-3" />
      <path
         d="m 1190.3,42750 1047.4617,-1047.5 0.7383,0.8 v 2093.4 l -0.7383,0.8 L 1190.3,42750"
         style="fill:#141418;fill-opacity:1;fill-rule:nonzero;stroke:none"
         id="path56-2" />
      <path
         d="m 1238.848,40500 998.9137,-998.9 0.7383,0.7 v 1996.4 l -0.7383,0.7 -998.9137,-998.9"
         style="fill:#141418;fill-opacity:1;fill-rule:nonzero;stroke:none"
         id="path98-9" />
      <path
         d="m 1287.402,38250 950.3597,-950.4 0.7383,0.8 v 1899.2 l -0.7383,0.8 -950.3597,-950.4"
         style="fill:#141418;fill-opacity:1;fill-rule:nonzero;stroke:none"
         id="path140-2" />
      <path
         d="m 1335.949,36000 901.8127,-901.8 0.7383,0.7 v 1802.2 l -0.7383,0.7 -901.8127,-901.8"
         style="fill:#141418;fill-opacity:1;fill-rule:nonzero;stroke:none"
         id="path182-2" />
      <path
         d="m 1384.5,33750 853.2617,-853.3 0.7383,0.8 v 1705 l -0.7383,0.8 L 1384.5,33750"
         style="fill:#141418;fill-opacity:1;fill-rule:nonzero;stroke:none"
         id="path224-4" />
      <path
         d="m 1433.051,31500 804.7107,-804.7 0.7383,0.7 v 1608 l -0.7383,0.7 -804.7107,-804.7"
         style="fill:#141418;fill-opacity:1;fill-rule:nonzero;stroke:none"
         id="path266-0" />
      <path
         d="m 1481.602,29250 756.1597,-756.2 0.7383,0.8 v 1510.8 l -0.7383,0.8 -756.1597,-756.2"
         style="fill:#141418;fill-opacity:1;fill-rule:nonzero;stroke:none"
         id="path308-0" />
      <path
         d="m 1530.156,27000 707.6057,-707.6 0.7383,0.7 v 1413.8 l -0.7383,0.7 -707.6057,-707.6"
         style="fill:#141418;fill-opacity:1;fill-rule:nonzero;stroke:none"
         id="path350-7" />
      <path
         d="m 1578.703,24750 659.0587,-659.1 0.7344,0.8 v 1316.6 l -0.7383,0.8 -659.0587,-659.1"
         style="fill:#141418;fill-opacity:1;fill-rule:nonzero;stroke:none"
         id="path392-7" />
      <path
         d="m 1627.254,22500 610.5077,-610.5 0.7344,0.7 v 1219.6 l -0.7344,0.7 -610.5077,-610.5"
         style="fill:#141418;fill-opacity:1;fill-rule:nonzero;stroke:none"
         id="path434-1" />
      <path
         d="m 1675.805,20250 561.9567,-562 0.7344,0.8 v 1122.4 l -0.7344,0.8 -561.9567,-562"
         style="fill:#141418;fill-opacity:1;fill-rule:nonzero;stroke:none"
         id="path476-3" />
      <path
         d="m 1724.355,18000 513.4067,-513.4 0.7344,0.7 v 1025.4 l -0.7344,0.7 -513.4067,-513.4"
         style="fill:#141418;fill-opacity:1;fill-rule:nonzero;stroke:none"
         id="path518-0" />
      <path
         d="m 1772.91,15750 464.8517,-464.9 0.7344,0.8 v 928.2 l -0.7344,0.8 L 1772.91,15750"
         style="fill:#141418;fill-opacity:1;fill-rule:nonzero;stroke:none"
         id="path560-5" />
      <path
         d="m 1821.457,13500 416.3047,-416.3 0.7344,0.7 v 831.2 l -0.7344,0.7 -416.3047,-416.3"
         style="fill:#141418;fill-opacity:1;fill-rule:nonzero;stroke:none"
         id="path602-6" />
      <path
         d="m 1870.008,11250 367.7537,-367.8 0.7344,0.8 v 734 l -0.7344,0.8 -367.7537,-367.8"
         style="fill:#141418;fill-opacity:1;fill-rule:nonzero;stroke:none"
         id="path644-6" />
      <path
         d="m 1918.559,9000 319.2027,-319.2 0.7344,0.7 v 637 l -0.7344,0.7 L 1918.559,9000"
         style="fill:#141418;fill-opacity:1;fill-rule:nonzero;stroke:none"
         id="path686-2" />
      <path
         d="m 1967.109,6750 270.6527,-270.6 0.7344,0.7 v 539.8 l -0.7344,0.7 L 1967.109,6750"
         style="fill:#141418;fill-opacity:1;fill-rule:nonzero;stroke:none"
         id="path728-5" />
      <path
         d="m 2015.664,4500 222.0977,-222.1 0.7344,0.7 v 442.8 l -0.7344,0.7 L 2015.664,4500"
         style="fill:#141418;fill-opacity:1;fill-rule:nonzero;stroke:none"
         id="path770-8" />
      <path
         d="m 2064.215,2250 173.5467,-173.6 0.7344,0.8 v 345.6 l -0.7344,0.8 L 2064.215,2250"
         style="fill:#141418;fill-opacity:1;fill-rule:nonzero;stroke:none"
         id="path812-8" />
      <path
         d="m 2112.762,0 h 125.7341 V 124.3 L 2237.7617,125 2112.762,0"
         style="fill:#141418;fill-opacity:1;fill-rule:nonzero;stroke:none"
         id="path854-7" />
    </g>
  </g>
</svg>
