<svg xmlns="http://www.w3.org/2000/svg">
  <defs>
    <symbol id="square">
      <rect width="48" height="48" fill="currentColor" />
    </symbol>
    <symbol id="circle">
      <circle cx="24" cy="24" r="24" fill="currentColor" />
    </symbol>
    <symbol id="triangle">
      <polygon points="0,44.785 24,3.215 48,44.785" fill="currentColor" />
    </symbol>
    <symbol id="diamond">
      <polygon points="24,0 48,24 24,48 0,24" fill="currentColor" />
    </symbol>
    <symbol id="asterisk">
      <path d="M 11.937819,44.716976 C 10.860099,44.136665 10.238337,43.30765 10.072534,42.22993 9.989633,41.15221 10.321239,39.991589 11.067353,38.748066 L 19.77203,25.069314 21.139905,27.05895 4.849738,27.680712 c -1.4922275,0 -2.6942997,-0.290156 -3.6062165,-0.870466 C 0.4145078,26.147034 0,25.193666 0,23.950143 0,22.789522 0.4145078,21.919056 1.2435215,21.338745 2.1554383,20.675532 3.3575105,20.385377 4.849738,20.468279 L 21.139905,21.09004 19.77203,22.955325 11.191705,9.1521701 C 10.36269,7.9086472 10.031084,6.7480258 10.196887,5.6703059 10.36269,4.592586 10.943,3.7635774 11.937819,3.18327 12.932637,2.6029566 13.927456,2.5615067 14.922274,3.0589194 16.00001,3.5563269 16.870476,4.4682338 17.533689,5.7946582 L 24.621769,19.47346 H 23.378246 L 30.466327,5.7946582 c 0.746114,-1.3264244 1.61658,-2.2383313 2.611398,-2.7357388 1.07772,-0.4974127 2.113989,-0.4559628 3.108808,0.1243506 0.994818,0.6632139 1.533678,1.5336849 1.616579,2.6113882 0.165804,1.0777199 -0.165803,2.2383413 -0.994818,3.4818642 L 28.227986,22.955325 26.860111,21.09004 43.150261,20.468279 c 1.492228,-0.0829 2.652849,0.207253 3.481864,0.870466 C 47.544042,21.919056 48,22.789522 48,23.950143 c 0,1.243523 -0.455958,2.196891 -1.367875,2.860103 -0.829015,0.58031 -1.989636,0.870466 -3.481864,0.870466 l -16.29015,-0.621762 1.367875,-1.989636 8.580308,13.678752 c 0.829015,1.243523 1.160622,2.404144 0.994818,3.481864 -0.0829,0.994818 -0.621761,1.782383 -1.616579,2.362694 -1.07772,0.663212 -2.15544,0.746113 -3.23316,0.248704 -0.994818,-0.497409 -1.823834,-1.367875 -2.487046,-2.611398 L 23.378246,28.551178 h 1.243523 L 17.409336,42.22993 c -0.663212,1.326425 -1.492227,2.238341 -2.487062,2.735751 -0.994818,0.497409 -1.989637,0.414507 -2.984455,-0.248705 z" fill="currentColor" />
    </symbol>
  </def>
</svg>